<?xml version="1.0" encoding="UTF-8"?>
<!DOCTYPE svg PUBLIC "-//W3C//DTD SVG 1.1//EN" "http://www.w3.org/Graphics/SVG/1.1/DTD/svg11.dtd">

<svg xmlns="http://www.w3.org/2000/svg" xmlns:xlink="http://www.w3.org/1999/xlink" xml:space="preserve" width="80px" height="80px" style="fill:#fff;stroke:#fff;display:inline-block;vertical-align:middle;" version="1.1" viewBox="0 0 100 100">
    <g>
        <path d="m82.652 27.863h-18.59v-2.1328c0-3.4453-2.8047-6.25-6.25-6.25h-15.625c-3.4453 0-6.25 2.8047-6.25 6.25v2.1328h-18.59c-1.0039 0-1.8164 0.8125-1.8164 1.8164v16.371c0 0.78125 0.5 1.4766 1.2422 1.7227l23.281 7.75v6.6875c0 1.0039 0.8125 1.8125 1.8125 1.8164l16.289 0.035156h0.003906c0.48047 0 0.94141-0.19141 1.2812-0.53125s0.53125-0.80469 0.53125-1.2852v-6.7227l23.246-7.75c0.74219-0.24609 1.2422-0.94141 1.2422-1.7227l0.007812-16.371c0-1.0039-0.8125-1.8164-1.8164-1.8164zm-43.082-2.1328c0-1.4414 1.1719-2.6172 2.6172-2.6172h15.625c1.4414 0 2.6172 1.1719 2.6172 2.6172v2.1328h-20.859zm4.1172 34.668v-4.3672h12.656v4.3945zm37.148-15.656l-22.969 7.6562h-15.703l-23-7.6602v-13.242h61.672z">
        </path>
        <path d="m82.652 52.398c-1.0039 0-1.8164 0.8125-1.8164 1.8164v16.184c0 3.5781-2.9102 6.4922-6.4922 6.4922l-48.691-0.003906c-3.5781 0-6.4922-2.9102-6.4922-6.4922l0.003906-16.18c0-1.0039-0.8125-1.8164-1.8164-1.8164s-1.8164 0.8125-1.8164 1.8164v16.184c0 5.582 4.543 10.125 10.125 10.125h48.691c5.582 0 10.125-4.543 10.125-10.125l-0.003906-16.184c0-1.0039-0.8125-1.8164-1.8164-1.8164z">
        </path>
    </g>
</svg>